<svg xmlns="http://www.w3.org/2000/svg" viewBox="0 0 1337.68 276.33"><defs><style>.cls-1{fill:#2d4120;stroke:#2d4120;stroke-miterlimit:10;stroke-width:17.47px;}</style></defs><title>Asset 4</title><g id="Layer_2" data-name="Layer 2"><g id="Layer_1-2" data-name="Layer 1"><path class="cls-1" d="M36.43,209.59H13L92.24,16.53h25.41l73,193.06H163.46l-20-53.22H58.24Zm29.41-72.42h70.22L102.25,47.34Z"/><path class="cls-1" d="M308.3,180.18q-7,14.81-18.31,22.1t-26.9,7.31q-24.81,0-40.91-19.51T206.07,139q0-21,7.2-38.21t20.31-25.61q13.1-8.4,30.51-8.4a52.28,52.28,0,0,1,23.5,5.1Q297.9,77,308.3,92.75V70.55h23.2V184.18q0,42.81-9,56.51A56.07,56.07,0,0,1,299.8,261q-13.71,6.6-32.31,6.6a87.32,87.32,0,0,1-30.81-5.1q-13.6-5.1-20.71-14T208.87,230v-2.2h23.21v2q0,9.19,9.9,14.8t25.31,5.61q12.4,0,21.3-4.31a32.44,32.44,0,0,0,14.31-14q5.4-9.7,5.4-34.91Zm0-44.21q0-22.41-11.4-36.21T269.49,86q-16.8,0-28,14t-11.2,39.21q0,16,4.4,27.9t14,18.11a37,37,0,0,0,20.41,6.2q17.4,0,28.31-15.5T308.3,136Z"/><path class="cls-1" d="M391.32,209.59H368.11v-139h23.21V95.16q5.79-10.6,12.6-16.51a49.94,49.94,0,0,1,14.4-8.9,42.17,42.17,0,0,1,15.61-3,34.63,34.63,0,0,1,12.4,2v24a41,41,0,0,0-17.4-3.8q-13,0-25.31,11.41T391.32,141Z"/><path class="cls-1" d="M525.55,213.39q-27.21,0-46.41-18.41t-19.21-55q0-36.21,19.21-54.72t46.41-18.5q27.21,0,46.41,18.5T591.17,140q0,36.6-19.21,55T525.55,213.39Zm0-19.21q18.81,0,30.11-14.9T567,140q0-24.21-11.3-39.11T525.55,86q-18.81,0-30.11,14.91T484.14,140q0,24.41,11.3,39.31T525.55,194.18Z"/><path class="cls-1" d="M642.38,209.59H621V16.53h24.81L705.6,154.37,760.81,16.53h24.41V209.59H763v-115l.6-34.61H763l-12.6,34.61-34.21,86H691L653.78,94.16,642.38,63h-.6l.6,31.21Z"/><path class="cls-1" d="M907.65,209.59Q904,198.39,904,190.38q-15.19,15-25.9,19a59.19,59.19,0,0,1-20.71,4,42.34,42.34,0,0,1-28.31-10.11q-11.89-10.09-11.9-27.9,0-20.2,16.71-31.11t57.71-18.91L904,123v-15.6q0-12.8-8.6-18t-20.6-5.2q-14.42,0-22.51,6.3t-8.1,14.91v2H819v-2q0-9.19,7.8-19a48,48,0,0,1,20.71-14.8,77.2,77.2,0,0,1,28.11-5,75.92,75.92,0,0,1,27.6,4.8q12.4,4.8,18.21,12.8t5.8,30v54q0,9,.4,18.7a91.76,91.76,0,0,0,4.4,22.71ZM904,139.37l-7,1.8q-35.2,8.6-45,16.3t-9.8,18.31a18.82,18.82,0,0,0,11.5,17.6A27,27,0,0,0,865,196a37.06,37.06,0,0,0,19.21-5.6,39.21,39.21,0,0,0,14.6-15.1q5.2-9.51,5.2-22.11Z"/><path class="cls-1" d="M1047.88,190v19.41q-16.8,4-25.81,4a51.67,51.67,0,0,1-23.4-5.2A35.58,35.58,0,0,1,982.86,193q-5.4-10-5.4-31.61V90h-24V70.55h24V37.74h23.21V70.55h40.61V90h-40.61v64.82q0,18.4,2.9,25.51a20.36,20.36,0,0,0,9,10.5,29.75,29.75,0,0,0,14.7,3.4Q1034.08,194.18,1047.88,190Z"/><path class="cls-1" d="M1162.91,173.78h23.2v1.4q0,9.19-7,18.7a44.67,44.67,0,0,1-18.4,14.51q-11.42,5-27.41,5-30.81,0-47.41-19.41t-16.61-54q0-34.22,16.61-53.72t47.41-19.5q16,0,27.41,5a47.3,47.3,0,0,1,18.4,13.8,30.46,30.46,0,0,1,7,19.41v1.4h-23.2V105q.39-7.39-6.7-13.21T1134.5,86a38.14,38.14,0,0,0-29.21,12.81q-11.8,12.8-11.8,41.21,0,28.6,11.8,41.41a38.16,38.16,0,0,0,29.21,12.8q14.6,0,21.51-5.7t6.9-13.3Z"/><path class="cls-1" d="M1238.12,209.59h-23.2V8.73h23.2V94.56q7.41-11.2,14.31-16.71a52.64,52.64,0,0,1,14.4-8.3,47.4,47.4,0,0,1,16.71-2.8,50.68,50.68,0,0,1,23.5,5.3,38.09,38.09,0,0,1,16.11,15.7q5.79,10.41,5.8,33.41v88.43h-23.21V131q0-18.6-2.5-26.4a22,22,0,0,0-9.5-12.21,29.13,29.13,0,0,0-15.81-4.4,34.87,34.87,0,0,0-19.4,6,43.48,43.48,0,0,0-14.8,16.7q-5.61,10.71-5.61,30.51Z"/></g></g></svg>