<svg xmlns="http://www.w3.org/2000/svg" viewBox="0 0 748.02 155.45"><defs><style>.cls-1{fill:#2d4120;stroke:#2d4120;}.cls-1,.cls-2{stroke-miterlimit:10;stroke-width:11px;}.cls-2{fill:#6d8a3a;stroke:#6d8a3a;}</style></defs><title>Asset 3</title><g id="Layer_2" data-name="Layer 2"><g id="Layer_1-2" data-name="Layer 1"><path class="cls-1" d="M21.26,117.58H8.2L52.41,9.85H66.59l40.74,107.73H92.15L81,87.89H33.43ZM37.67,77.17H76.86L58,27Z"/><path class="cls-1" d="M173,101.17a28.88,28.88,0,0,1-10.21,12.34,27.13,27.13,0,0,1-15,4.07,28.34,28.34,0,0,1-22.83-10.88q-9-10.89-9-28.53a54.69,54.69,0,0,1,4-21.32q4-9.6,11.33-14.29a30.88,30.88,0,0,1,17-4.69,29.19,29.19,0,0,1,13.12,2.85q5.75,2.85,11.55,11.67V40h12.95V103.4q0,23.89-5,31.54a31.36,31.36,0,0,1-12.67,11.33,41.1,41.1,0,0,1-18,3.68A48.87,48.87,0,0,1,133,147.11q-7.59-2.85-11.56-7.82a16.37,16.37,0,0,1-4-10.32v-1.23h13v1.11q0,5.15,5.53,8.27t14.12,3.12a27.15,27.15,0,0,0,11.89-2.4,18.14,18.14,0,0,0,8-7.81q3-5.41,3-19.48Zm0-24.67q0-12.51-6.36-20.21t-15.29-7.7q-9.39,0-15.63,7.81t-6.26,21.88a44.81,44.81,0,0,0,2.46,15.58,19.72,19.72,0,0,0,7.82,10.1,20.58,20.58,0,0,0,11.38,3.46q9.72,0,15.8-8.65T173,76.5Z"/><path class="cls-1" d="M219.3,117.58h-13V40h13V53.73a32.92,32.92,0,0,1,7-9.21,27.64,27.64,0,0,1,8-5,23.46,23.46,0,0,1,8.71-1.68A19.38,19.38,0,0,1,250,39v13.4a22.77,22.77,0,0,0-9.71-2.13q-7.26,0-14.13,6.37T219.3,79.29Z"/><path class="cls-1" d="M294.2,119.7a36,36,0,0,1-25.89-10.27q-10.72-10.28-10.72-30.7,0-20.2,10.72-30.53a37.62,37.62,0,0,1,51.79,0q10.72,10.32,10.72,30.53,0,20.43-10.72,30.7A36.06,36.06,0,0,1,294.2,119.7Zm0-10.72a20,20,0,0,0,16.8-8.31q6.31-8.33,6.31-21.94T311,56.91a21.12,21.12,0,0,0-33.6,0q-6.3,8.31-6.3,21.82t6.3,21.94A20.05,20.05,0,0,0,294.2,109Z"/><path class="cls-2" d="M359.4,117.58H347.45V9.85h13.84l33.38,76.92L425.48,9.85H439.1V117.58H426.71V53.39l.34-19.31h-.34l-7,19.31-19.09,48H386.52L365.76,53.17,359.4,35.75h-.34l.34,17.42Z"/><path class="cls-2" d="M507.42,117.58a36,36,0,0,1-2-10.72q-8.49,8.37-14.46,10.61a32.85,32.85,0,0,1-11.55,2.23,23.63,23.63,0,0,1-15.8-5.64Q457,108.44,457,98.49a19.54,19.54,0,0,1,9.32-17.36q9.33-6.07,32.21-10.55l6.92-1.34V60.53q0-7.14-4.8-10a21.76,21.76,0,0,0-11.5-2.9q-8,0-12.56,3.51T472,59.42v1.11H458V59.42q0-5.13,4.35-10.61a26.79,26.79,0,0,1,11.55-8.26,43.06,43.06,0,0,1,15.69-2.79A42.26,42.26,0,0,1,505,40.44q6.93,2.69,10.16,7.15t3.24,16.74V94.47q0,5,.22,10.44A51.2,51.2,0,0,0,521,117.58Zm-2-39.18-3.91,1q-19.65,4.8-25.11,9.1t-5.47,10.21a10.72,10.72,0,0,0,1.62,5.75,10.56,10.56,0,0,0,4.8,4.08,15,15,0,0,0,6.3,1.45,20.66,20.66,0,0,0,10.72-3.13,21.85,21.85,0,0,0,8.15-8.43,25.3,25.3,0,0,0,2.9-12.33Z"/><path class="cls-2" d="M585.67,106.64v10.83q-9.37,2.23-14.4,2.23a28.85,28.85,0,0,1-13.06-2.9,19.85,19.85,0,0,1-8.82-8.49q-3-5.58-3-17.63V50.82H533V40h13.4V21.69h13V40H582V50.82H559.33V87q0,10.28,1.62,14.24a11.34,11.34,0,0,0,5,5.86,16.66,16.66,0,0,0,8.21,1.89C576.7,109,580.54,108.2,585.67,106.64Z"/><path class="cls-2" d="M649.86,97.6h12.95v.78q0,5.13-3.91,10.44a24.85,24.85,0,0,1-10.27,8.09,37.93,37.93,0,0,1-15.29,2.79q-17.19,0-26.46-10.83t-9.26-30.14q0-19.1,9.26-30t26.46-10.89a38.1,38.1,0,0,1,15.29,2.79,26.33,26.33,0,0,1,10.27,7.71,17,17,0,0,1,3.91,10.83V60H649.86V59.2c.15-2.76-1.1-5.21-3.74-7.37s-6.68-3.24-12.11-3.24a21.29,21.29,0,0,0-16.3,7.14q-6.59,7.16-6.58,23t6.58,23.11A21.29,21.29,0,0,0,634,109q8.15,0,12-3.18a9.4,9.4,0,0,0,3.85-7.42Z"/><path class="cls-2" d="M691.83,117.58H678.89V5.5h12.94V53.39a40.44,40.44,0,0,1,8-9.32,29.1,29.1,0,0,1,8-4.63,26.58,26.58,0,0,1,9.33-1.57,28.25,28.25,0,0,1,13.11,3,21.26,21.26,0,0,1,9,8.76q3.24,5.82,3.24,18.65v49.34H729.57V73.71q0-10.38-1.4-14.74a12.26,12.26,0,0,0-5.3-6.81,16.31,16.31,0,0,0-8.82-2.45,19.43,19.43,0,0,0-10.83,3.35A24.29,24.29,0,0,0,695,62.38q-3.12,6-3.13,17Z"/></g></g></svg>