<?xml version="1.0" encoding="utf-8"?>
<!-- Generator: Adobe Illustrator 22.0.0, SVG Export Plug-In . SVG Version: 6.00 Build 0)  -->
<svg version="1.1" id="Layer_1" xmlns="http://www.w3.org/2000/svg" xmlns:xlink="http://www.w3.org/1999/xlink" x="0px" y="0px"
	 viewBox="0 0 1800 500" style="enable-background:new 0 0 1800 500;" xml:space="preserve">
<style type="text/css">
	.st0{fill:none;}
	.st1{enable-background:new    ;}
	.st2{fill:#2D4120;}
	.st3{fill:#FFFFFF;stroke:#FFFFFF;stroke-width:27;stroke-miterlimit:10;}
	.st4{fill:#6D8A3A;}
</style>
<rect x="26.1" y="116.5" class="st0" width="1772.9" height="267.1"/>
<g class="st1">
	<path class="st2" d="M62.2,382.8h-31l105.1-256h33.7l96.8,256h-36.1l-26.5-70.6h-113L62.2,382.8z M101.2,286.8h93.1l-44.8-119.1
		L101.2,286.8z"/>
	<path class="st2" d="M422.7,343.8c-6.2,13.1-14.3,22.9-24.3,29.3c-10,6.5-21.9,9.7-35.7,9.7c-21.9,0-40-8.6-54.3-25.9
		c-14.2-17.2-21.4-39.8-21.4-67.8c0-18.6,3.2-35.5,9.6-50.7c6.4-15.2,15.3-26.5,26.9-34c11.6-7.4,25.1-11.1,40.5-11.1
		c11.7,0,22.1,2.3,31.2,6.8c9.1,4.5,18.3,13.8,27.5,27.7v-29.4h30.8v150.7c0,37.8-4,62.8-11.9,74.9c-8,12.1-18,21.1-30.1,26.9
		c-12.1,5.8-26.4,8.8-42.8,8.8c-15.2,0-28.8-2.3-40.9-6.8c-12-4.5-21.2-10.7-27.5-18.6c-6.3-7.9-9.4-16.1-9.4-24.5v-2.9h30.8v2.7
		c0,8.1,4.4,14.7,13.1,19.6c8.8,4.9,19.9,7.4,33.6,7.4c11,0,20.4-1.9,28.3-5.7c7.9-3.8,14.2-10,19-18.6c4.8-8.6,7.2-24,7.2-46.3
		V343.8z M422.7,285.2c0-19.8-5-35.8-15.1-48c-10.1-12.2-22.2-18.3-36.3-18.3c-14.9,0-27.2,6.2-37.1,18.6
		c-9.9,12.4-14.9,29.7-14.9,52c0,14.2,1.9,26.5,5.8,37c3.9,10.5,10.1,18.5,18.6,24c8.5,5.5,17.5,8.2,27.1,8.2
		c15.4,0,27.9-6.9,37.5-20.6C417.9,324.4,422.7,306.7,422.7,285.2z"/>
	<path class="st2" d="M532.8,382.8H502V198.4h30.8V231c5.1-9.4,10.7-16.7,16.7-21.9c6-5.2,12.4-9.2,19.1-11.8c6.7-2.7,13.6-4,20.7-4
		c6.4,0,11.8,0.9,16.4,2.7v31.8c-7.3-3.4-14.9-5-23.1-5c-11.5,0-22.7,5-33.6,15.1c-10.9,10.1-16.3,28-16.3,53.9V382.8z"/>
	<path class="st2" d="M710.8,387.8c-24.1,0-44.6-8.1-61.6-24.4c-17-16.3-25.5-40.6-25.5-73c0-32,8.5-56.2,25.5-72.6
		c17-16.4,37.5-24.5,61.6-24.5c24.1,0,44.6,8.2,61.6,24.5c17,16.4,25.5,40.6,25.5,72.6c0,32.4-8.5,56.7-25.5,73
		C755.4,379.7,734.9,387.8,710.8,387.8z M710.8,362.4c16.6,0,29.9-6.6,39.9-19.8c10-13.2,15-30.6,15-52.1c0-21.4-5-38.7-15-51.9
		c-10-13.2-23.3-19.8-39.9-19.8c-16.6,0-29.9,6.6-39.9,19.8c-10,13.2-15,30.5-15,51.9c0,21.6,5,39,15,52.1
		C680.9,355.8,694.2,362.4,710.8,362.4z"/>
</g>
<g class="st1">
	<path class="st3" d="M62.2,382.8h-31l105.1-256h33.7l96.8,256h-36.1l-26.5-70.6h-113L62.2,382.8z M101.2,286.8h93.1l-44.8-119.1
		L101.2,286.8z"/>
	<path class="st3" d="M422.7,343.8c-6.2,13.1-14.3,22.9-24.3,29.3c-10,6.5-21.9,9.7-35.7,9.7c-21.9,0-40-8.6-54.3-25.9
		c-14.2-17.2-21.4-39.8-21.4-67.8c0-18.6,3.2-35.5,9.6-50.7c6.4-15.2,15.3-26.5,26.9-34c11.6-7.4,25.1-11.1,40.5-11.1
		c11.7,0,22.1,2.3,31.2,6.8c9.1,4.5,18.3,13.8,27.5,27.7v-29.4h30.8v150.7c0,37.8-4,62.8-11.9,74.9c-8,12.1-18,21.1-30.1,26.9
		c-12.1,5.8-26.4,8.8-42.8,8.8c-15.2,0-28.8-2.3-40.9-6.8c-12-4.5-21.2-10.7-27.5-18.6c-6.3-7.9-9.4-16.1-9.4-24.5v-2.9h30.8v2.7
		c0,8.1,4.4,14.7,13.1,19.6c8.8,4.9,19.9,7.4,33.6,7.4c11,0,20.4-1.9,28.3-5.7c7.9-3.8,14.2-10,19-18.6c4.8-8.6,7.2-24,7.2-46.3
		V343.8z M422.7,285.2c0-19.8-5-35.8-15.1-48c-10.1-12.2-22.2-18.3-36.3-18.3c-14.9,0-27.2,6.2-37.1,18.6
		c-9.9,12.4-14.9,29.7-14.9,52c0,14.2,1.9,26.5,5.8,37c3.9,10.5,10.1,18.5,18.6,24c8.5,5.5,17.5,8.2,27.1,8.2
		c15.4,0,27.9-6.9,37.5-20.6C417.9,324.4,422.7,306.7,422.7,285.2z"/>
	<path class="st3" d="M532.8,382.8H502V198.4h30.8V231c5.1-9.4,10.7-16.7,16.7-21.9c6-5.2,12.4-9.2,19.1-11.8c6.7-2.7,13.6-4,20.7-4
		c6.4,0,11.8,0.9,16.4,2.7v31.8c-7.3-3.4-14.9-5-23.1-5c-11.5,0-22.7,5-33.6,15.1c-10.9,10.1-16.3,28-16.3,53.9V382.8z"/>
	<path class="st3" d="M710.8,387.8c-24.1,0-44.6-8.1-61.6-24.4c-17-16.3-25.5-40.6-25.5-73c0-32,8.5-56.2,25.5-72.6
		c17-16.4,37.5-24.5,61.6-24.5c24.1,0,44.6,8.2,61.6,24.5c17,16.4,25.5,40.6,25.5,72.6c0,32.4-8.5,56.7-25.5,73
		C755.4,379.7,734.9,387.8,710.8,387.8z M710.8,362.4c16.6,0,29.9-6.6,39.9-19.8c10-13.2,15-30.6,15-52.1c0-21.4-5-38.7-15-51.9
		c-10-13.2-23.3-19.8-39.9-19.8c-16.6,0-29.9,6.6-39.9,19.8c-10,13.2-15,30.5-15,51.9c0,21.6,5,39,15,52.1
		C680.9,355.8,694.2,362.4,710.8,362.4z"/>
</g>
<g class="st1">
	<path class="st4" d="M865.8,382.8h-28.4v-256h32.9l79.3,182.8l73.2-182.8h32.4v256h-29.4V230.2l0.8-45.9h-0.8l-16.7,45.9
		l-45.4,114.1h-33.4l-49.3-114.6l-15.1-41.4H865l0.8,41.4V382.8z"/>
	<path class="st4" d="M1217.6,382.8c-3.2-9.9-4.8-18.4-4.8-25.5c-13.4,13.3-24.9,21.7-34.4,25.2c-9.5,3.5-18.6,5.3-27.5,5.3
		c-14.5,0-27-4.5-37.5-13.4c-10.5-8.9-15.8-21.3-15.8-37c0-17.9,7.4-31.6,22.2-41.3c14.8-9.6,40.3-18,76.5-25.1l16.4-3.2v-20.7
		c0-11.3-3.8-19.3-11.4-23.9c-7.6-4.6-16.7-6.9-27.3-6.9c-12.7,0-22.7,2.8-29.8,8.4c-7.2,5.6-10.7,12.2-10.7,19.8v2.7h-33.4v-2.7
		c0-8.1,3.4-16.5,10.3-25.2c6.9-8.7,16.1-15.2,27.5-19.6c11.4-4.4,23.8-6.6,37.3-6.6c13.4,0,25.6,2.1,36.6,6.4
		c11,4.2,19,9.9,24.1,17c5.1,7.1,7.7,20.3,7.7,39.8v71.6c0,8,0.2,16.2,0.5,24.8c0.4,8.6,2.3,18.6,5.8,30.1H1217.6z M1212.8,289.7
		l-9.3,2.4c-31.1,7.6-51,14.8-59.7,21.6c-8.7,6.8-13,14.9-13,24.3c0,5,1.3,9.5,3.8,13.7c2.6,4.2,6.4,7.4,11.4,9.7
		c5,2.3,10,3.4,15,3.4c8.7,0,17.2-2.5,25.5-7.4c8.3-4.9,14.8-11.6,19.4-20c4.6-8.4,6.9-18.2,6.9-29.3V289.7z"/>
	<path class="st4" d="M1403.6,356.8v25.7c-14.9,3.5-26.3,5.3-34.2,5.3c-11.5,0-21.8-2.3-31-6.9c-9.2-4.6-16.2-11.3-21-20.2
		c-4.8-8.8-7.2-22.8-7.2-41.9v-94.7h-31.8v-25.7h31.8v-43.5h30.8v43.5h53.9v25.7H1341v86c0,16.3,1.3,27.6,3.8,33.8
		c2.6,6.3,6.5,10.9,11.9,13.9c5.4,3,11.9,4.5,19.5,4.5C1382.3,362.4,1391.4,360.5,1403.6,356.8z"/>
	<path class="st4" d="M1556.1,335.3h30.8v1.9c0,8.1-3.1,16.4-9.3,24.8c-6.2,8.4-14.3,14.8-24.4,19.2c-10.1,4.4-22.2,6.6-36.3,6.6
		c-27.2,0-48.2-8.6-62.9-25.7c-14.7-17.2-22-41-22-71.6c0-30.2,7.3-54,22-71.2c14.7-17.2,35.6-25.9,62.9-25.9
		c14.1,0,26.3,2.2,36.3,6.6c10.1,4.4,18.2,10.5,24.4,18.3c6.2,7.8,9.3,16.4,9.3,25.7v1.9h-30.8V244c0.4-6.5-2.6-12.4-8.9-17.5
		c-6.3-5.1-15.9-7.7-28.8-7.7c-15.4,0-28.3,5.7-38.7,17c-10.4,11.3-15.7,29.5-15.7,54.7c0,25.3,5.2,43.6,15.7,54.9
		c10.4,11.3,23.3,17,38.7,17c12.9,0,22.4-2.5,28.5-7.6c6.1-5,9.2-10.9,9.2-17.6V335.3z"/>
	<path class="st4" d="M1655.9,382.8h-30.8V116.4h30.8v113.8c6.5-9.9,12.9-17.3,19-22.2c6.1-4.9,12.5-8.5,19.1-11
		c6.6-2.5,14-3.7,22.2-3.7c11.7,0,22.1,2.3,31.2,7c9.1,4.7,16.2,11.6,21.4,20.8c5.1,9.2,7.7,24,7.7,44.3v117.3h-30.8V278.5
		c0-16.4-1.1-28.1-3.3-35c-2.2-6.9-6.4-12.3-12.6-16.2c-6.2-3.9-13.2-5.8-21-5.8c-9,0-17.6,2.7-25.7,8c-8.1,5.3-14.7,12.7-19.6,22.2
		c-5,9.5-7.4,22.9-7.4,40.5V382.8z"/>
</g>
<g class="st1">
	<path class="st3" d="M865.8,382.8h-28.4v-256h32.9l79.3,182.8l73.2-182.8h32.4v256h-29.4V230.2l0.8-45.9h-0.8l-16.7,45.9
		l-45.4,114.1h-33.4l-49.3-114.6l-15.1-41.4H865l0.8,41.4V382.8z"/>
	<path class="st3" d="M1217.6,382.8c-3.2-9.9-4.8-18.4-4.8-25.5c-13.4,13.3-24.9,21.7-34.4,25.2c-9.5,3.5-18.6,5.3-27.5,5.3
		c-14.5,0-27-4.5-37.5-13.4c-10.5-8.9-15.8-21.3-15.8-37c0-17.9,7.4-31.6,22.2-41.3c14.8-9.6,40.3-18,76.5-25.1l16.4-3.2v-20.7
		c0-11.3-3.8-19.3-11.4-23.9c-7.6-4.6-16.7-6.9-27.3-6.9c-12.7,0-22.7,2.8-29.8,8.4c-7.2,5.6-10.7,12.2-10.7,19.8v2.7h-33.4v-2.7
		c0-8.1,3.4-16.5,10.3-25.2c6.9-8.7,16.1-15.2,27.5-19.6c11.4-4.4,23.8-6.6,37.3-6.6c13.4,0,25.6,2.1,36.6,6.4
		c11,4.2,19,9.9,24.1,17c5.1,7.1,7.7,20.3,7.7,39.8v71.6c0,8,0.2,16.2,0.5,24.8c0.4,8.6,2.3,18.6,5.8,30.1H1217.6z M1212.8,289.7
		l-9.3,2.4c-31.1,7.6-51,14.8-59.7,21.6c-8.7,6.8-13,14.9-13,24.3c0,5,1.3,9.5,3.8,13.7c2.6,4.2,6.4,7.4,11.4,9.7
		c5,2.3,10,3.4,15,3.4c8.7,0,17.2-2.5,25.5-7.4c8.3-4.9,14.8-11.6,19.4-20c4.6-8.4,6.9-18.2,6.9-29.3V289.7z"/>
	<path class="st3" d="M1403.6,356.8v25.7c-14.9,3.5-26.3,5.3-34.2,5.3c-11.5,0-21.8-2.3-31-6.9c-9.2-4.6-16.2-11.3-21-20.2
		c-4.8-8.8-7.2-22.8-7.2-41.9v-94.7h-31.8v-25.7h31.8v-43.5h30.8v43.5h53.9v25.7H1341v86c0,16.3,1.3,27.6,3.8,33.8
		c2.6,6.3,6.5,10.9,11.9,13.9c5.4,3,11.9,4.5,19.5,4.5C1382.3,362.4,1391.4,360.5,1403.6,356.8z"/>
	<path class="st3" d="M1556.1,335.3h30.8v1.9c0,8.1-3.1,16.4-9.3,24.8c-6.2,8.4-14.3,14.8-24.4,19.2c-10.1,4.4-22.2,6.6-36.3,6.6
		c-27.2,0-48.2-8.6-62.9-25.7c-14.7-17.2-22-41-22-71.6c0-30.2,7.3-54,22-71.2c14.7-17.2,35.6-25.9,62.9-25.9
		c14.1,0,26.3,2.2,36.3,6.6c10.1,4.4,18.2,10.5,24.4,18.3c6.2,7.8,9.3,16.4,9.3,25.7v1.9h-30.8V244c0.4-6.5-2.6-12.4-8.9-17.5
		c-6.3-5.1-15.9-7.7-28.8-7.7c-15.4,0-28.3,5.7-38.7,17c-10.4,11.3-15.7,29.5-15.7,54.7c0,25.3,5.2,43.6,15.7,54.9
		c10.4,11.3,23.3,17,38.7,17c12.9,0,22.4-2.5,28.5-7.6c6.1-5,9.2-10.9,9.2-17.6V335.3z"/>
	<path class="st3" d="M1655.9,382.8h-30.8V116.4h30.8v113.8c6.5-9.9,12.9-17.3,19-22.2c6.1-4.9,12.5-8.5,19.1-11
		c6.6-2.5,14-3.7,22.2-3.7c11.7,0,22.1,2.3,31.2,7c9.1,4.7,16.2,11.6,21.4,20.8c5.1,9.2,7.7,24,7.7,44.3v117.3h-30.8V278.5
		c0-16.4-1.1-28.1-3.3-35c-2.2-6.9-6.4-12.3-12.6-16.2c-6.2-3.9-13.2-5.8-21-5.8c-9,0-17.6,2.7-25.7,8c-8.1,5.3-14.7,12.7-19.6,22.2
		c-5,9.5-7.4,22.9-7.4,40.5V382.8z"/>
</g>
</svg>
